PathFileType	4	(X/Y/Z)	Patient4_TMGait_0pt5_02_left_19.trc.trc
DataRate	CameraRate	NumFrames	NumMarkers	Units	OrigDataRate	OrigDataStartFrame	OrigNumFrames
76.502732240437	76.502732240437	5	33	mm	76.502732240437	124	       141
Frame#	Time	Sacral			L.Shoulder			Chest			R.Shoulder			Neck			R.ASIS			L.ASIS			R.Thigh.Superior			R.Thigh.Lateral			R.Thigh.Inferior			R.Patella			L.Thigh.Superior			L.Thigh.Lateral			L.Thigh.Inferior			L.Patella			L.Shank.Superior			L.Shank.Lateral			L.Shank.Inferior			R.Shank.Superior			R.Shank.Lateral			R.Shank.Inferior			R.Heel			R.Midfoot.Superior			R.Midfoot.Lateral			R.Toe			L.Heel			L.Midfoot.Lateral			L.Midfoot.Superior			L.Toe			L.Elbow			L.Wrist			R.Elbow			R.Wrist			
		X1	Y1	Z1	X2	Y2	Z2	X3	Y3	Z3	X4	Y4	Z4	X5	Y5	Z5	X6	Y6	Z6	X7	Y7	Z7	X8	Y8	Z8	X9	Y9	Z9	X10	Y10	Z10	X11	Y11	Z11	X12	Y12	Z12	X13	Y13	Z13	X14	Y14	Z14	X15	Y15	Z15	X16	Y16	Z16	X17	Y17	Z17	X18	Y18	Z18	X19	Y19	Z19	X20	Y20	Z20	X21	Y21	Z21	X22	Y22	Z22	X23	Y23	Z23	X24	Y24	Z24	X25	Y25	Z25	X26	Y26	Z26	X27	Y27	Z27	X28	Y28	Z28	X29	Y29	Z29	X30	Y30	Z30	X31	Y31	Z31	X32	Y32	Z32	X33	Y33	Z33	

124	25.627785714286	565.281468425799	1011.299185253462	519.185854328412	753.119595941286	1426.784654912691	325.211255826060	867.898979844060	1345.058983730657	472.152275618441	811.940668723312	1423.071688975632	655.787407859249	775.242833523463	1484.758803779058	475.864118530158	795.303967854202	930.459170202829	614.705029903988	759.991739384200	951.321137709290	341.588712405066	798.700149155829	720.022368133360	586.173261852868	703.188635011609	625.892693221884	653.466169287545	762.051614714026	560.653461949990	569.534642293043	745.097238154571	472.926451355187	576.093967159438	831.641991494798	765.955958738409	370.988883909472	771.600633409886	641.240677130286	299.547790433655	872.888576291134	578.737695239983	359.291972022361	892.285511048294	510.524137205021	359.010797977936	874.317774887983	438.414919241957	347.079102456744	802.754717394828	312.314375719473	295.931244367801	883.738278236826	209.766118524321	352.419438907600	703.815094712207	389.875718015619	585.705013717663	619.119960497882	299.930709621004	650.901903918350	642.604538950573	199.154012784993	588.559371111065	486.447331279902	44.741092547708	562.298075680450	657.448030175778	95.969489783115	600.395765596206	567.658093319305	36.566335356345	638.447459885746	775.912316778080	40.917275271088	633.830244838226	789.707582022786	37.758988266613	391.649983183800	861.202489569191	39.498334438801	309.388528517547	937.662222837435	109.940527242886	329.956048671662	1067.969882639977	71.557077198132	299.237960100498	615.228087595763	1100.232191455631	218.963412949943	638.912930099290	838.326690254339	206.217679905115	889.826032978940	1091.701109841100	763.490564910777	1117.244069494037	1139.470576637974	670.999242662708	
125	25.640857142857	567.080405403212	1009.756181596724	515.680232030422	752.572726486286	1425.708728673140	321.599407123083	867.303396363964	1345.429127391168	469.290847468901	809.801659307645	1423.415968231740	652.468498557881	773.509475384652	1484.271986059090	472.192398585802	796.727087816953	929.855759345710	612.896967325264	763.172680190902	949.914301309287	339.726429056760	799.232743958999	718.837283401217	584.680873200946	702.662492221207	625.159846359078	651.775845218790	761.264061081568	559.406056270631	568.114622947217	743.606684737640	471.189777723208	574.635013867106	834.943858256902	764.389619514700	368.776037258377	773.136926950612	639.679940393863	298.311348220050	874.920900716117	577.158729144995	357.135080869698	892.664105472839	507.878583929469	357.587164046777	874.030721551737	435.427753637370	345.895157664040	800.261765234656	310.461780998616	294.958464585852	879.047193531460	206.626615749754	352.056363882704	701.032448760314	388.685515999969	584.383803455508	615.235657947045	299.980854761090	649.892726723988	637.550693700947	198.770064663572	587.916378473770	479.881624461604	45.278198710138	562.252070824250	651.134907707845	96.074449082505	600.200192985715	561.145873306344	36.889690094628	638.299558636347	769.397041574467	40.723547950308	633.867484001908	780.791070071041	37.506549905650	391.546564913110	852.317973268795	37.588133902082	309.106600677735	930.732544972866	105.886705046471	330.086810069132	1060.301863656546	63.931559343441	299.145721371130	617.194619122925	1098.071932949743	215.469157216419	643.223869307394	836.299290044499	203.737962830089	892.486585169935	1093.202340423744	759.772550787799	1117.708424575451	1148.066100757153	666.330849449451	
126	25.653928571429	568.850355970284	1008.398535907315	512.164143190298	752.177417473811	1424.660555986852	317.824731520236	866.794303027536	1345.899612543203	466.339535658480	807.716860927806	1423.987164798505	648.992808413974	771.895229560691	1483.900876341702	468.309738781528	798.098769571621	929.334843994335	611.029584342684	766.296318431542	948.739666684501	337.864027754086	800.080550294345	717.812305635959	583.112913564535	702.627670669126	624.440416702074	649.938345873084	761.151313263037	558.259623333645	566.555733086294	742.959090720359	469.353318515810	573.131996810618	838.030084507275	763.021705721364	366.599697254747	774.814158093221	638.511514793124	296.826149668432	876.820070925126	575.826844213125	355.077603457370	893.076353635804	505.612580880443	356.105868462726	873.835257719109	432.825632983969	344.637628661277	798.102187383005	308.916354712425	293.826346749933	874.676462013426	203.933424784226	351.676838150186	698.880707983242	387.529735501087	583.007182129344	611.802721893646	300.235760936380	648.813153612862	632.807136226636	198.548466028160	587.253932613303	473.385496301571	46.287492102585	562.203677601064	645.023510562447	96.290991272143	600.040182216440	554.704896799931	37.503084302214	638.163221470528	762.942117385321	40.444683662878	633.917077183206	772.434809626502	37.352477271520	391.419254548416	844.000020056541	36.101652343816	308.833816674825	924.053126124471	102.559720882653	330.275960554079	1052.993477858352	57.616645486002	299.154069975203	619.752994784180	1095.739941445762	211.775777527116	647.885637102549	834.118781671091	200.938050850355	894.641000564169	1094.907630391950	756.329256479425	1117.744927183250	1155.985176569573	662.069196389088	
127	25.667000000000	570.531765913979	1007.308262631181	508.679618396471	751.946449053065	1423.713038979347	313.944760714304	866.385581816252	1346.485005940009	463.324049142508	805.760173348949	1424.808511816065	645.396173822226	770.453902070950	1483.692970540010	464.278204384971	799.358564370863	928.964690635908	609.089565679917	769.255821083619	947.877823488021	335.968559456535	801.244043629379	717.028645140179	581.437843741936	703.175662839332	623.766662242646	647.958910285818	761.842025364379	557.268859634173	564.866594943945	743.328674387984	467.455261788156	571.646659195111	840.818300104224	761.955446603834	364.449134498486	776.572772574154	637.775708725555	295.106015677034	878.506030035496	574.795228911541	353.121982426498	893.492960862967	503.799144810030	354.574855758248	873.685313298780	430.678831910377	343.331346497855	796.240167258155	307.746396109235	292.564991014539	870.614704477946	201.763285318497	351.277754955068	697.514029607077	386.453762460055	581.612135606025	608.945679694142	300.771188696561	647.673288269334	628.482359868201	198.565919569816	586.589604897614	467.016666232644	47.943203864196	562.139096240433	639.189685984679	96.650982728923	599.925180108104	548.369899287097	38.510126766441	638.029779962254	756.556938996706	40.071841544563	633.980929522686	764.744663010055	37.290766364726	391.276296890863	836.341896274445	35.059337943592	308.574301532852	917.668500940204	100.044344194049	330.481046236475	1046.105781388028	52.797919135945	299.207341288573	622.948115248885	1093.315740158867	207.929125352795	652.894113386745	831.857397510179	197.841796355024	896.223159560076	1096.786368325101	753.183213848360	1117.387999930431	1163.104785558187	658.234088934655	
128	25.680071428571	572.074733875546	1006.546658877040	505.248663514367	751.882000918394	1422.934550990756	310.020466037921	866.081961356129	1347.194430650941	460.274053646969	803.987115246817	1425.885966813788	641.721001739932	769.221175300385	1483.685018948774	460.168772804109	800.455133552470	928.810431660768	607.068737130126	771.971869974561	947.380361633057	334.004587994122	802.721173659212	716.559999030400	579.637052548320	704.384178503650	623.170527257854	645.854201429128	763.446001766653	556.485315366301	563.071017336142	744.855669093323	465.544818134479	570.247945360088	843.261886635585	761.244673471576	362.299947213543	778.303526609589	637.449885995958	293.203643288741	879.885984641914	574.055132538218	351.259006142090	893.829915944020	502.432409351114	353.027870286400	873.473696304942	428.990181280023	342.022253888362	794.547981198364	306.963968573487	291.232552990656	866.756992704047	200.119123867556	350.872198114969	697.068696952453	385.502415614760	580.239644498284	606.784890645951	301.659883814531	646.485274969603	624.685942490941	198.900010142992	585.941248911049	460.850190825980	50.420043490608	562.036505813042	633.710071498819	97.184647898456	599.859637883403	542.182076448998	40.018712250753	637.883460825944	750.244961465108	39.606721359939	634.058278655734	757.684593836639	37.302066831159	391.124532322876	829.301507769621	34.425611622945	308.331792509749	911.536209584121	98.316635823867	330.670883058285	1039.599681304999	49.456587248779	299.263892904842	626.803368376264	1090.888098188067	203.969994296634	658.273021166704	829.601185512239	194.479067977856	897.165853250029	1098.795459989037	750.343204136011	1116.666372832158	1169.302924060525	654.839323300592	
